/* XPM */
static char * gtkpod_icon_32x32_xpm[] = {
"32 32 218 2",
"  	c None",
". 	c #CACACA",
"+ 	c #C8C8C8",
"@ 	c #C6C6C6",
"# 	c #C4C4C4",
"$ 	c #C3C3C3",
"% 	c #C1C1C1",
"& 	c #BFBFBF",
"* 	c #BDBDBD",
"= 	c #BCBCBC",
"- 	c #BABABA",
"; 	c #B9B9B9",
"> 	c #B7B7B7",
", 	c #B5B5B5",
"' 	c #B3B3B3",
") 	c #B1B1B1",
"! 	c #ADADAD",
"~ 	c #ABABAB",
"{ 	c #E5E5E5",
"] 	c #E2E2E2",
"^ 	c #E1E1E1",
"/ 	c #DFDFDF",
"( 	c #DEDEDE",
"_ 	c #DCDCDC",
": 	c #DBDBDB",
"< 	c #D9D9D9",
"[ 	c #D8D8D8",
"} 	c #D6D6D6",
"| 	c #D5D5D5",
"1 	c #D3D3D3",
"2 	c #D2D2D2",
"3 	c #D0D0D0",
"4 	c #CFCFCF",
"5 	c #CCCCCC",
"6 	c #A6A6A6",
"7 	c #E7E7E7",
"8 	c #E2E3E2",
"9 	c #DADCDB",
"0 	c #D8DBDA",
"a 	c #D8DAD9",
"b 	c #D6D8D7",
"c 	c #D4D7D6",
"d 	c #D4D6D5",
"e 	c #D2D5D3",
"f 	c #D1D3D2",
"g 	c #CFD2D1",
"h 	c #CED0CF",
"i 	c #CDCFCE",
"j 	c #CCCECD",
"k 	c #D0D1D1",
"l 	c #D1D1D1",
"m 	c #A1A1A1",
"n 	c #E4E4E4",
"o 	c #B6C1BC",
"p 	c #879D93",
"q 	c #869C92",
"r 	c #859C92",
"s 	c #B2BBB7",
"t 	c #CDCDCD",
"u 	c #9C9C9C",
"v 	c #E3E3E3",
"w 	c #A8B6B0",
"x 	c #849B91",
"y 	c #6E8179",
"z 	c #6F827A",
"A 	c #A6B3AD",
"B 	c #CBCBCB",
"C 	c #969696",
"D 	c #E0E0E0",
"E 	c #A7B5AF",
"F 	c #839A90",
"G 	c #38423E",
"H 	c #2E3532",
"I 	c #7F958B",
"J 	c #A5B2AC",
"K 	c #C9C9C9",
"L 	c #909090",
"M 	c #A7B5AE",
"N 	c #82988F",
"O 	c #535F5A",
"P 	c #434D49",
"Q 	c #A4B1AB",
"R 	c #C7C7C7",
"S 	c #8B8B8B",
"T 	c #DDDDDD",
"U 	c #A5B3AD",
"V 	c #63756D",
"W 	c #72867E",
"X 	c #39433F",
"Y 	c #82998F",
"Z 	c #A3AFAA",
"` 	c #C5C5C5",
" .	c #858585",
"..	c #DADADA",
"+.	c #A5B3AC",
"@.	c #81988E",
"#.	c #56655E",
"$.	c #7C9188",
"%.	c #7B9087",
"&.	c #2D3431",
"*.	c #A2AEA9",
"=.	c #C2C2C2",
"-.	c #7F7F7F",
";.	c #D7D7D7",
">.	c #A4B2AC",
",.	c #788A82",
"'.	c #72857D",
").	c #687971",
"!.	c #61706A",
"~.	c #788C83",
"{.	c #A1ADA8",
"].	c #797979",
"^.	c #A3B1AB",
"/.	c #7D9188",
"(.	c #778C83",
"_.	c #62716A",
":.	c #5B6B65",
"<.	c #6D7E77",
"[.	c #80968C",
"}.	c #A0ACA7",
"|.	c #C0C0C0",
"1.	c #BEBEBE",
"2.	c #747474",
"3.	c #D4D4D4",
"4.	c #A2B0AA",
"5.	c #9FABA6",
"6.	c #6E6E6E",
"7.	c #B0B9B5",
"8.	c #8EA299",
"9.	c #8DA199",
"0.	c #8DA198",
"a.	c #8CA098",
"b.	c #8CA097",
"c.	c #A8B0AD",
"d.	c #BBBBBB",
"e.	c #686868",
"f.	c #CBCCCC",
"g.	c #C3C6C5",
"h.	c #C1C4C3",
"i.	c #C0C3C2",
"j.	c #BFC2C0",
"k.	c #BEC0BF",
"l.	c #BCBFBE",
"m.	c #BBBEBD",
"n.	c #BABDBB",
"o.	c #B8BBBA",
"p.	c #B7BAB9",
"q.	c #B6B9B8",
"r.	c #B5B8B7",
"s.	c #B9BABA",
"t.	c #B8B8B8",
"u.	c #636363",
"v.	c #CECECE",
"w.	c #B6B6B6",
"x.	c #5C5C5C",
"y.	c #575757",
"z.	c #9A9A9A",
"A.	c #A3A3A3",
"B.	c #ACACAC",
"C.	c #B0B0B0",
"D.	c #A8A8A8",
"E.	c #B2B2B2",
"F.	c #515151",
"G.	c #888888",
"H.	c #9E9E9E",
"I.	c #999999",
"J.	c #AFAFAF",
"K.	c #4B4B4B",
"L.	c #A2A2A2",
"M.	c #454545",
"N.	c #9F9F9F",
"O.	c #404040",
"P.	c #F0F0F0",
"Q.	c #A9A9A9",
"R.	c #3A3A3A",
"S.	c #EAEAEA",
"T.	c #E9E9E9",
"U.	c #ECECEC",
"V.	c #A7A7A7",
"W.	c #343434",
"X.	c #A4A4A4",
"Y.	c #2E2E2E",
"Z.	c #8C8C8C",
"`.	c #EBEBEB",
" +	c #F2F2F2",
".+	c #292929",
"++	c #F4F4F4",
"@+	c #A0A0A0",
"#+	c #232323",
"$+	c #F7F7F7",
"%+	c #1E1E1E",
"&+	c #B4B4B4",
"*+	c #F6F6F6",
"=+	c #181818",
"-+	c #E6E6E6",
";+	c #EFEFEF",
">+	c #F3F3F3",
",+	c #9B9B9B",
"'+	c #121212",
")+	c #AEAEAE",
"!+	c #AAAAAA",
"~+	c #989898",
"{+	c #0C0C0C",
"]+	c #A5A5A5",
"^+	c #979797",
"/+	c #939393",
"(+	c #060606",
"_+	c #767676",
":+	c #030303",
"<+	c #737373",
"[+	c #717171",
"}+	c #707070",
"|+	c #6D6D6D",
"1+	c #6B6B6B",
"2+	c #6A6A6A",
"3+	c #696969",
"4+	c #676767",
"5+	c #5E5E5E",
"                  . + @ # $ % & * = - ; > , ' ) ! ~             ",
"                { ] ^ / ( _ : < [ } | 1 2 3 4 5 - 6             ",
"              7 7 8 9 0 a b c d e f g h i j k l 5 m             ",
"              { n o p q q q q q r r r r r p s 4 t u             ",
"              v ] w x x x x x y z x x x x x A t B C             ",
"              ^ D E x x x x F G H I x x x x J . K L             ",
"              / ( M x x x x N O P y x x x x Q K R S             ",
"              T : U x x x x V W y X Y x x x Z @ `  .            ",
"              : ..+.x x x @.#.$.%.&.I x x x *.# =.-.            ",
"              < ;.>.x x x ,.'.).y !.~.x x x {.=.% ].            ",
"              ;.| ^.x x x /.(._.:.<.[.x x x }.|.1.2.            ",
"              3.1 4.x x x x F F F F x x x x 5.1.= 6.            ",
"              2 l 7.8.9.9.0.0.0.a.b.b.b.b.b.c.d.- e.            ",
"              3 4 f.g.h.i.j.k.l.m.n.o.p.q.r.s.; t.u.            ",
"              v.5 B . + R 5 3.;.} 2 R 1.d.- t.> w.x.            ",
"              B . K R t [ 2 * ' ' = v.1 # t.w., ' y.            ",
"              . + R % 1 w.z.A.B.) C.D., v.w., ' E.F.            ",
"              + @ K 5 G.H.> * =.@ . v.& I.= * ) J.K.            ",
"              ` ` } , L.; * =.@ . v.1 ;.v.t.4 ' ! M.            ",
"              $ + l N.> * % R 3 2 2 ;.: / ` t d.~ O.            ",
"              % 5 @ 6 * % @ T P.{ 4 ../ v ( ` # Q.R.            ",
"              & v.= w.=.@ 5 S.T.^ =.v.v 7 U.K B V.W.            ",
"              * 5 1.& @ . B 1 T < ! $ 7 U.P.2 B X.Y.            ",
"              - R + d.. v.4 E.> ! Z.: `.P. +2 $ A..+            ",
"              t.|.3 d.v.2 } t ~ X.v.`.P.++S.< w.@+#+            ",
"              w.> 5 ` 4 } : / v 7 U.P.++$+^ 3 6 H.%+            ",
"              &+' - 2 ; ;./ v 7 `.P.++*+_ ;.&+H.u =+            ",
"              E.) C.A.d.1 : -+`.;+>+>+T.v.,+H.,+z.'+            ",
"              C.)+! !+t.1 : ^ v { `.n ..> u z.I.~+{+            ",
"              ! ! ~ Q.D.~ t.@ 5 5 + t.]+u I.~+^+/+(+            ",
"              L.Q.Q.V.]+X.A.L.L.m H.,+z.I.^+C /+_+:+            ",
"                  -._+<+[+}+6.6.|+1+2+3+e.4+4+5+                "};
