/* XPM */
static char *gtkpod[] = {
/* columns rows colors chars-per-pixel */
"32 32 195 2",
"   c black",
".  c #010202",
"X  c #060708",
"o  c #0E0E0F",
"O  c #0B0E12",
"+  c #121314",
"@  c #131415",
"#  c #161B20",
"$  c #131C28",
"%  c #19212B",
"&  c #1B2128",
"*  c #1A232E",
"=  c #1B242F",
"-  c #1D2632",
";  c #212A31",
":  c #202A37",
">  c #222B36",
",  c #242B35",
"<  c #252C36",
"1  c #252D36",
"2  c #252D37",
"3  c #202D39",
"4  c #22303F",
"5  c #28303A",
"6  c #373737",
"7  c #24384D",
"8  c #2A3B4D",
"9  c #2C3B4D",
"0  c #39454E",
"q  c #49535E",
"w  c #425061",
"e  c #4C5D69",
"r  c #5D636B",
"t  c #5B6B77",
"y  c #3E6D9F",
"u  c #4E77A4",
"i  c #607996",
"p  c #657C97",
"a  c #677F9B",
"s  c #757A81",
"d  c #767F8B",
"f  c #5E8BB6",
"g  c #7A828C",
"h  c #798692",
"j  c #79899D",
"k  c #658CAF",
"l  c #7287A5",
"z  c #7088A4",
"x  c #738AA4",
"c  c #748CA6",
"v  c #738EAA",
"b  c #7C93B3",
"n  c #7D93B3",
"m  c #7C94B3",
"M  c #7D94B4",
"N  c #7B9AB8",
"B  c #7F98B8",
"V  c #7F98B9",
"C  c #7C9EB8",
"Z  c #7FA1C3",
"A  c #868787",
"S  c #8A8B8B",
"D  c gray56",
"F  c #8894A0",
"G  c #8A9BA7",
"H  c #8E9FAA",
"J  c #809ABA",
"K  c #819CBD",
"L  c #819DBD",
"P  c #819EBE",
"I  c #829EBE",
"U  c #94A1AB",
"Y  c #91A6B9",
"T  c #9CABB7",
"R  c gray64",
"E  c #A4A4A4",
"W  c #A2B0BB",
"Q  c gray71",
"!  c #B6B6B6",
"~  c gray73",
"^  c #BBBBBB",
"/  c gray74",
"(  c gray75",
")  c #82A0C0",
"_  c #83A1C1",
"`  c #84A3C2",
"'  c #84A3C3",
"]  c #84A5C4",
"[  c #86A7C7",
"{  c #86A8C8",
"}  c #87ABCA",
"|  c #88A9C9",
" . c #8FB4D1",
".. c #91B1CE",
"X. c #9CB6C9",
"o. c #93B5D1",
"O. c #99BAD5",
"+. c #9BBAD4",
"@. c #9EBFD9",
"#. c #A0B0C0",
"$. c #A5BCCE",
"%. c #ACC0CE",
"&. c #A6C1D4",
"*. c #A3C0D9",
"=. c #A7C5DE",
"-. c #B5C1D4",
";. c #B2C5D9",
":. c #ADCAE0",
">. c #B3CDE1",
",. c #B3D0E5",
"<. c #BFD7E9",
"1. c #C0C0C0",
"2. c #C1C1C1",
"3. c gray76",
"4. c #C3C3C3",
"5. c gray77",
"6. c #C5C5C5",
"7. c #C6C6C6",
"8. c gray78",
"9. c #C8C8C8",
"0. c gray79",
"q. c #CACACA",
"w. c #CBCBCB",
"e. c gray80",
"r. c #CDCDCC",
"t. c #CDCDCD",
"y. c gray81",
"u. c #D0D0D0",
"i. c gray82",
"p. c #D2D2D0",
"a. c #D3D3D2",
"s. c LightGray",
"d. c gray83",
"f. c #D5D5D5",
"g. c #D6D6D5",
"h. c gray84",
"j. c #D7D7D7",
"k. c #D7D8D8",
"l. c #D8D8D8",
"z. c gray85",
"x. c #DADADA",
"c. c gray86",
"v. c #DCDCDB",
"b. c gainsboro",
"n. c #DDDDDD",
"m. c #DEDEDC",
"M. c gray87",
"N. c #DFDFDF",
"B. c #C0D0E0",
"V. c #C0D5E6",
"C. c #E1E1DF",
"Z. c gray88",
"A. c #E1E1E1",
"S. c #E2E2E2",
"D. c gray89",
"F. c #E4E4E4",
"G. c gray90",
"H. c #E6E6E6",
"J. c #E7E7E7",
"K. c #E9E9E9",
"L. c gray92",
"P. c #ECECEC",
"I. c gray93",
"U. c #EEEEEC",
"Y. c #EEEEEE",
"T. c #EFEFEE",
"R. c #EFEFEF",
"E. c #EFFCFF",
"W. c #F0F0EF",
"Q. c gray94",
"!. c #F1F1F0",
"~. c #F1F1F1",
"^. c gray95",
"/. c #F3F3F3",
"(. c #F3F3F5",
"). c #F4F4F4",
"_. c gray96",
"`. c #F6F5F5",
"'. c #F6F6F5",
"]. c #F6F6F6",
"[. c gray97",
"{. c #F5FFFF",
"}. c #FFFEF4",
"|. c #F8F8F8",
" X c #F8F9F8",
".X c #F9F9F9",
"XX c gray98",
"oX c #FBFBFB",
"OX c #F8FCFA",
"+X c #FEFEFB",
"@X c gray99",
"#X c #FDFDFD",
"$X c #FEFEFE",
"%X c gray100",
"&X c None",
/* pixels */
"&X&X&X&X&X&X&X&X&X&X&X&X&X&X&X&X&X&X&X&X&X&X&X&X&X&X&X&X&X&X&X&X",
"&X&X&X&X&X&X&X^ w.w.w.w.w.w.w.w.w.w.w.w.w.t.w.w.4.&X&X&X&X&X&X&X",
"&X&X&X&X&X&X&Xw.@X@X@X@X@X@X@X@X@X@X@X@X@X@X@X@Xw.&X&X&X&X&X&X&X",
"&X&X&X&X&X&X&Xw.R.S S A A A S A S A A A A A A K.w.&X&X&X&X&X&X&X",
"&X&X&X&X&X&X&Xw.8.j -.N K ] ..*.>.V.T W B.;.i E w.&X&X&X&X&X&X&X",
"&X&X&X&X&X&X&Xw.8.j b V ) { +.:.<.U o   @ Y a E w.&X&X&X&X&X&X&X",
"&X&X&X&X&X&X&Xw.8.j 5 w v } @.,.%.+       h x R w.&X&X&X&X&X&X&X",
"&X&X&X&X&X&X&Xw.9.j x & # ; e &.H         F x R w.&X&X&X&X&X&X&X",
"&X&X&X&X&X&X&Xw.8.j M 1 ' N 0 X.H         T x R w.&X&X&X&X&X&X&X",
"&X&X&X&X&X&X&Xw.8.j b 1 ) [ o.=.$.t .     q a R w.&X&X&X&X&X&X&X",
"&X&X&X&X&X&X&Xw.8.j b 1 K ' { +. .C X       : R w.&X&X&X&X&X&X&X",
"&X&X&X&X&X&X&Xw.8.j b , J K ' Z f k O       * R w.&X&X&X&X&X&X&X",
"&X&X&X&X&X&X&Xw.8.j b , b M K u y 7         $ R w.&X&X&X&X&X&X&X",
"&X&X&X&X&X&X&Xw.n.s g r g g d 8 8 7 3 - - = & w.w.&X&X&X&X&X&X&X",
"&X&X&X&X&X&X&Xw.@XXXXXXXXXXX[._._._._._._._._.XXw.&X&X&X&X&X&X&X",
"&X&X&X&X&X&X&Xw.@XXXXX[.XXXXXX_.XX_.[._._._._.XXw.&X&X&X&X&X&X&X",
"&X&X&X&X&X&X&Xw.@XXXXXXXXXI.n.z.{.@X@X@X_._._.oXw.&X&X&X&X&X&X&X",
"&X&X&X&X&X&X&Xw.@X].XXXXZ.j.z.j.j.j.z.D._././.oXw.&X&X&X&X&X&X&X",
"&X&X&X&X&X&X&Xw.@XXXXXH.z.j.z.j.j.j.l.j.H./._.oXw.&X&X&X&X&X&X&X",
"&X&X&X&X&X&X&Xw.@XXX_.z.j.j.z.Z.Z.j.j.j.z././.oXw.&X&X&X&X&X&X&X",
"&X&X&X&X&Xw.4.w.@X]./.z.z.z.H.@X@XH.j.z.c.I._.XXw.&X&X&X&X&X&X&X",
"&X&X&X&X4.z.t.w.@XXXI.c.z.j.I.@XXXI.z.z.n.L./.oXw.&X&X&X&X&X&X&X",
"&X&X&X4.Z./ Q 4.@XXX/.j.j.j.n./.T.n.j.j.j.I./.oXw.&X&X&X&X&X&X&X",
"&X&X&X8.H.Q ^ 8.@X_.XXn.j.j.j.z.z.j.j.j.E.}.j.I.w.&X&X&X&X&X&X&X",
"&X&X&Xt.Z.R R 4.@XXX]./.j.j.j.j.j.j.j.u.(. XI./.8.&X&X&X&X&X&X&X",
"&X&Xt.t.XXR D ^ @XXX].].K.z.j.n.n.j.t.T.XX/./.@XT.z.n.z.u.4.@X&X",
"&X&Xw.I.z._.8.8.@X]./././.I.H.Z.Z.K.a.].@X@X@XI.Z.j.z.z.n.n.u.&X",
"&X&Xw.u.u.t.z.t.oX/././././././././.u./.@Xn.H./.@X@X@XZ.I.n.4.&X",
"&X&X&X&X&X&X&Xw.@X_.].XX_._.]._._._.j./.H.T.@XXXT.D.n.l.u.t.&X&X",
"&X&X&X&X&X&X&X8.j.N.n.n.n.n.n.c.z.n.z.t./.Z.Z.n.8.1.&X&X&X&X&X&X",
"&X&X&X&X&X&X&X&X&X&X                  6 / 4.8.4.&X&X&X&X&X&X&X&X",
"&X&X&X&X&X&X&X&X&X&X&X&X&X&X&X&X&X&X&X&X&X&X&X&X&X&X&X&X&X&X&X&X"
};
